
        <svg viewbox="0 0 800 800" xmlns="http://www.w3.org/2000/svg" style="background: black;">
        <circle cx="400" cy="400" r="133.33333333333334" fill="white" style="stroke-width: 0;"/>
        
    <path d="
            M 488.71578903249576 410
            L 661.5809576875649 709.4112549695428
            A 400 400 0 0 1 255.05921198286927 773.8722573629387
            Z
        "
        fill="#9012fe"
        style="stroke: white; stroke-width: 10;"
    />


    <path d="
            M 442.5277674973256 480
            L 269.6625988422563 779.4112549695427
            A 400 400 0 0 1 10.576860363818128 459.5835971951766
            Z
        "
        fill="#61affe"
        style="stroke: white; stroke-width: 10;"
    />


    <path d="
            M 358.8119784648299 475
            L 13.08164115469151 474.99999999999994
            A 400 400 0 0 1 160.517648380949 90.71133983223797
            Z
        "
        fill="#49cc90"
        style="stroke: white; stroke-width: 10;"
    />


    <path d="
            M 321.28421096750424 400
            L 148.41904231243512 100.58874503045718
            A 400 400 0 0 1 554.9407880171309 36.12774263706126
            Z
        "
        fill="#50e3c2"
        style="stroke: white; stroke-width: 10;"
    />


    <path d="
            M 367.47223250267433 330
            L 540.3374011577437 30.588745030457233
            A 400 400 0 0 1 799.4231396361818 350.4164028048233
            Z
        "
        fill="#fca130"
        style="stroke: white; stroke-width: 10;"
    />


    <path d="
            M 451.18802153517004 335
            L 796.9183588453085 335
            A 400 400 0 0 1 649.4823516190511 719.2886601677619
            Z
        "
        fill="#f93e3e"
        style="stroke: white; stroke-width: 10;"
    />

        <text x="37" y="44" transform="scale(10,10)">{}</text>
        false
        </svg>
    