
        <svg viewbox="0 0 800 800" xmlns="http://www.w3.org/2000/svg" style="background: black;">
        <circle cx="400" cy="400" r="133.33333333333334" fill="white" style="stroke-width: 0;"/>
        
    <path d="
            M 521.8097998000808 420
            L 686.5914536509704 705.4101966249684
            A 400 400 0 0 1 284.22871904080284 790.4979773164558
            Z
        "
        fill="#9012fe"
        style="stroke: white; stroke-width: 30;"
    />


    <path d="
            M 464.0747728811181 510
            L 299.29311903022847 795.4101966249684
            A 400 400 0 0 1 24.423572094677752 489.49773726213067
            Z
        "
        fill="#61affe"
        style="stroke: white; stroke-width: 30;"
    />


    <path d="
            M 357.2649730810374 505
            L 27.701665379258316 504.99999999999994
            A 400 400 0 0 1 155.19485305387502 113.99975994567501
            Z
        "
        fill="#49cc90"
        style="stroke: white; stroke-width: 30;"
    />


    <path d="
            M 308.1902001999192 410
            L 143.40854634902973 124.58980337503152
            A 400 400 0 0 1 545.7712809591973 39.502022683544226
            Z
        "
        fill="#50e3c2"
        style="stroke: white; stroke-width: 30;"
    />


    <path d="
            M 365.9252271188818 320
            L 530.7068809697714 34.58980337503158
            A 400 400 0 0 1 805.5764279053222 340.50226273786916
            Z
        "
        fill="#fca130"
        style="stroke: white; stroke-width: 30;"
    />


    <path d="
            M 472.7350269189626 325
            L 802.2983346207417 325
            A 400 400 0 0 1 674.805146946125 716.0002400543249
            Z
        "
        fill="#f93e3e"
        style="stroke: white; stroke-width: 30;"
    />

        <text x="38" y="45" transform="scale(10,10)">{}</text>
        false
        </svg>
    