
        <svg width="800" height="800" xmlns="http://www.w3.org/2000/svg">
        <circle cx="400" cy="400" r="133.33333333333334" fill="white" style="stroke-width: 0;"/>
        
    <path d="
            M 446.18802153517004 320
            L 791.9183588453085 320
            A 400 400 0 0 1 644.4823516190511 716.588660167762
            Z
        "
        fill="#9012fe"
        style="stroke: white; stroke-width: 20;"
    />


    <path d="
            M 353.81197846482996 320
            L 526.6771471198992 20.588745030457233
            A 400 400 0 0 1 796.414998064886 346.56640280482327
            Z
        "
        fill="#61affe"
        style="stroke: white; stroke-width: 20;"
    />


    <path d="
            M 307.62395692965987 400
            L 134.75878827459076 100.58874503045718
            A 400 400 0 0 1 551.9326464458351 29.977742637061283
            Z
        "
        fill="#49cc90"
        style="stroke: white; stroke-width: 20;"
    />


    <path d="
            M 353.8119784648299 480
            L 8.08164115469151 479.99999999999994
            A 400 400 0 0 1 155.517648380949 83.41133983223796
            Z
        "
        fill="#50e3c2"
        style="stroke: white; stroke-width: 20;"
    />


    <path d="
            M 446.18802153517004 480
            L 273.32285288010064 779.4112549695428
            A 400 400 0 0 1 3.585001935113951 453.4335971951766
            Z
        "
        fill="#fca130"
        style="stroke: white; stroke-width: 20;"
    />


    <path d="
            M 492.37604307034013 400
            L 665.2412117254094 699.4112549695428
            A 400 400 0 0 1 248.06735355416504 770.0222573629387
            Z
        "
        fill="#f93e3e"
        style="stroke: white; stroke-width: 20;"
    />

        <text x="36" y="43" transform="scale(10,10)">{}</text>
        false
        </svg>
    
